<svg xmlns="http://www.w3.org/2000/svg" width="30" height="30" fill="none" viewBox="0 0 30 30"><g clip-path="url(#a)"><mask id="b" width="42" height="43" x="-6" y="-6" maskUnits="userSpaceOnUse" style="mask-type:luminance"><path fill="#fff" d="M-6-6h42v42H-6z"/></mask><g mask="url(#b)"><path fill="#0866ff" d="M30 15c0-8.284-6.716-15-15-15S0 6.716 0 15c0 7.035 4.843 12.937 11.376 14.558v-9.974H8.283V15h3.093v-1.975c0-5.106 2.31-7.472 7.323-7.472.95 0 2.59.186 3.261.373v4.155c-.354-.037-.969-.056-1.733-.056-2.46 0-3.41.932-3.41 3.354V15h4.9l-.842 4.584h-4.058V29.89C24.244 28.993 30 22.67 30 15"/><path fill="#fff" d="M20.875 19.584 21.717 15h-4.9v-1.621c0-2.422.95-3.354 3.41-3.354.764 0 1.379.018 1.733.056V5.926c-.67-.187-2.31-.373-3.26-.373-5.013 0-7.324 2.366-7.324 7.472V15H8.283v4.584h3.093v9.974a15 15 0 0 0 5.441.332V19.584z"/></g></g><defs><clipPath id="a"><path fill="#fff" d="M0 0h30v30H0z"/></clipPath></defs></svg>