<svg xmlns="http://www.w3.org/2000/svg" width="30" height="30" fill="none" viewBox="0 0 30 30"><g clip-path="url(#a)"><path fill="url(#b)" d="M15.005 0C8.743 0 6.91.006 6.555.036 5.27.143 4.47.346 3.599.779c-.671.334-1.201.72-1.724 1.262Q.45 3.523.138 5.691c-.101.7-.131.844-.137 4.428-.002 1.194 0 2.766 0 4.875 0 6.26.007 8.09.037 8.445.104 1.25.3 2.038.715 2.898a6.32 6.32 0 0 0 4.096 3.347c.618.16 1.3.247 2.178.288.371.016 4.157.028 7.946.028s7.577-.005 7.94-.023c1.014-.048 1.604-.127 2.256-.296a6.28 6.28 0 0 0 4.095-3.353c.407-.84.614-1.657.707-2.843.02-.258.029-4.38.029-8.495 0-4.116-.01-8.23-.03-8.488-.094-1.205-.3-2.015-.721-2.871a6 6 0 0 0-1.284-1.76C26.973.923 25.759.346 24.313.138c-.7-.102-.84-.132-4.426-.138z"/><path fill="url(#c)" d="M15.005 0C8.743 0 6.91.006 6.555.036 5.27.143 4.47.346 3.599.779c-.671.334-1.201.72-1.724 1.262Q.45 3.523.138 5.691c-.101.7-.131.844-.137 4.428-.002 1.194 0 2.766 0 4.875 0 6.26.007 8.09.037 8.445.104 1.25.3 2.038.715 2.898a6.32 6.32 0 0 0 4.096 3.347c.618.16 1.3.247 2.178.288.371.016 4.157.028 7.946.028s7.577-.005 7.94-.023c1.014-.048 1.604-.127 2.256-.296a6.28 6.28 0 0 0 4.095-3.353c.407-.84.614-1.657.707-2.843.02-.258.029-4.38.029-8.495 0-4.116-.01-8.23-.03-8.488-.094-1.205-.3-2.015-.721-2.871a6 6 0 0 0-1.284-1.76C26.973.923 25.759.346 24.313.138c-.7-.102-.84-.132-4.426-.138z"/><path fill="url(#d)" d="M15.005 0C8.743 0 6.91.006 6.555.036 5.27.143 4.47.346 3.599.779c-.671.334-1.201.72-1.724 1.262Q.45 3.523.138 5.691c-.101.7-.131.844-.137 4.428-.002 1.194 0 2.766 0 4.875 0 6.26.007 8.09.037 8.445.104 1.25.3 2.038.715 2.898a6.32 6.32 0 0 0 4.096 3.347c.618.16 1.3.247 2.178.288.371.016 4.157.028 7.946.028s7.577-.005 7.94-.023c1.014-.048 1.604-.127 2.256-.296a6.28 6.28 0 0 0 4.095-3.353c.407-.84.614-1.657.707-2.843.02-.258.029-4.38.029-8.495 0-4.116-.01-8.23-.03-8.488-.094-1.205-.3-2.015-.721-2.871a6 6 0 0 0-1.284-1.76C26.973.923 25.759.346 24.313.138c-.7-.102-.84-.132-4.426-.138z"/><path fill="url(#e)" d="M15.005 0C8.743 0 6.91.006 6.555.036 5.27.143 4.47.346 3.599.779c-.671.334-1.201.72-1.724 1.262Q.45 3.523.138 5.691c-.101.7-.131.844-.137 4.428-.002 1.194 0 2.766 0 4.875 0 6.26.007 8.09.037 8.445.104 1.25.3 2.038.715 2.898a6.32 6.32 0 0 0 4.096 3.347c.618.16 1.3.247 2.178.288.371.016 4.157.028 7.946.028s7.577-.005 7.94-.023c1.014-.048 1.604-.127 2.256-.296a6.28 6.28 0 0 0 4.095-3.353c.407-.84.614-1.657.707-2.843.02-.258.029-4.38.029-8.495 0-4.116-.01-8.23-.03-8.488-.094-1.205-.3-2.015-.721-2.871a6 6 0 0 0-1.284-1.76C26.973.923 25.759.346 24.313.138c-.7-.102-.84-.132-4.426-.138z"/><path fill="#fff" d="M15.006 3.852c-3.03 0-3.41.013-4.6.067-1.187.055-1.997.243-2.706.518a5.5 5.5 0 0 0-1.976 1.285 5.5 5.5 0 0 0-1.288 1.975c-.276.709-.464 1.519-.518 2.705-.053 1.189-.067 1.569-.067 4.596s.013 3.406.067 4.595c.055 1.186.243 1.996.519 2.705a5.5 5.5 0 0 0 1.286 1.974 5.5 5.5 0 0 0 1.975 1.287c.71.275 1.52.463 2.708.518 1.19.054 1.57.067 4.599.067s3.408-.013 4.598-.067c1.188-.055 1.999-.243 2.709-.518a5.5 5.5 0 0 0 1.974-1.287 5.5 5.5 0 0 0 1.288-1.974c.274-.709.462-1.519.518-2.705.053-1.189.067-1.568.067-4.595s-.014-3.407-.067-4.596c-.056-1.186-.244-1.996-.518-2.705a5.5 5.5 0 0 0-1.288-1.975c-.62-.62-1.24-1-1.975-1.285-.711-.275-1.522-.463-2.71-.518-1.19-.054-1.568-.067-4.598-.067zm-1 2.009h1c2.978 0 3.331.01 4.507.064 1.088.05 1.678.231 2.071.384.52.202.892.443 1.282.833s.632.762.835 1.282c.152.392.334.982.384 2.069.053 1.175.065 1.528.065 4.502 0 2.975-.012 3.328-.065 4.503-.05 1.087-.232 1.676-.384 2.069-.202.52-.445.89-.835 1.28a3.45 3.45 0 0 1-1.282.834c-.392.153-.983.334-2.07.384-1.177.053-1.53.065-4.508.065s-3.331-.012-4.507-.065c-1.088-.05-1.678-.232-2.071-.384a3.46 3.46 0 0 1-1.283-.834c-.39-.39-.632-.76-.835-1.281-.152-.392-.334-.982-.384-2.069-.053-1.175-.064-1.528-.064-4.504 0-2.977.01-3.328.064-4.503.05-1.087.232-1.676.384-2.07.202-.52.445-.891.835-1.281s.762-.632 1.283-.834c.393-.153.983-.335 2.07-.384 1.03-.047 1.429-.06 3.508-.063zm6.954 1.85a1.338 1.338 0 1 0-.001 2.677 1.338 1.338 0 0 0 .001-2.677m-5.954 1.563a5.726 5.726 0 0 0-5.728 5.724 5.725 5.725 0 0 0 5.728 5.723 5.724 5.724 0 1 0 0-11.447m0 2.009a3.717 3.717 0 0 1 3.718 3.715 3.717 3.717 0 0 1-3.718 3.715 3.717 3.717 0 0 1-3.718-3.715 3.717 3.717 0 0 1 3.718-3.715"/></g><defs><radialGradient id="b" cx="0" cy="0" r="1" gradientTransform="rotate(164.25 13.543 9.038)scale(19.16834 13.80988)" gradientUnits="userSpaceOnUse"><stop stop-color="#ff005f"/><stop offset="1" stop-color="#fc01d8"/></radialGradient><radialGradient id="c" cx="0" cy="0" r="1" gradientTransform="matrix(0 -23.9466 25.4068 0 7.969 32.31)" gradientUnits="userSpaceOnUse"><stop stop-color="#fc0"/><stop offset=".124" stop-color="#fc0"/><stop offset=".567" stop-color="#fe4a05"/><stop offset=".694" stop-color="#ff0f3f"/><stop offset="1" stop-color="#fe0657" stop-opacity="0"/></radialGradient><radialGradient id="d" cx="0" cy="0" r="1" gradientTransform="rotate(-59.87 33.56 1.106)scale(9.90211 12.89146)" gradientUnits="userSpaceOnUse"><stop stop-color="#fc0"/><stop offset="1" stop-color="#fc0" stop-opacity="0"/></radialGradient><radialGradient id="e" cx="0" cy="0" r="1" gradientTransform="matrix(-18.2461 5.1378 -1.75 -6.21656 4.07 1.222)" gradientUnits="userSpaceOnUse"><stop stop-color="#780cff"/><stop offset="1" stop-color="#820bff" stop-opacity="0"/></radialGradient><clipPath id="a"><path fill="#fff" d="M0 0h30v30H0z"/></clipPath></defs></svg>