<svg xmlns="http://www.w3.org/2000/svg" width="30" height="30" fill="none" viewBox="0 0 30 30"><g clip-path="url(#a)"><path fill="#000" d="M23.438 0H6.563A6.56 6.56 0 0 0 0 6.563v16.875A6.56 6.56 0 0 0 6.563 30h16.875A6.56 6.56 0 0 0 30 23.438V6.563A6.56 6.56 0 0 0 23.438 0"/><path fill="#fff" d="M22.91 8.045a6 6 0 0 1-.48-.278 6.7 6.7 0 0 1-1.228-1.044c-.916-1.049-1.259-2.113-1.385-2.857h.005c-.105-.619-.061-1.019-.055-1.019h-4.174v16.141c0 .217 0 .431-.01.643l-.003.079q0 .016-.003.036v.009a3.54 3.54 0 0 1-1.783 2.813c-.526.3-1.122.456-1.727.455-1.945 0-3.521-1.585-3.521-3.544 0-1.958 1.576-3.544 3.52-3.544.37 0 .735.058 1.085.172l.005-4.25a7.75 7.75 0 0 0-5.975 1.747 8.2 8.2 0 0 0-1.787 2.204c-.176.304-.841 1.525-.921 3.506-.051 1.125.287 2.29.448 2.771v.01c.1.284.493 1.252 1.133 2.067a8.5 8.5 0 0 0 1.808 1.706v-.01l.01.01c2.02 1.373 4.261 1.283 4.261 1.283.388-.016 1.687 0 3.163-.7 1.636-.774 2.568-1.93 2.568-1.93a8 8 0 0 0 1.4-2.325c.377-.993.503-2.184.503-2.66v-8.563c.05.03.725.477.725.477s.972.623 2.488 1.028c1.087.289 2.553.35 2.553.35V8.684c-.514.056-1.556-.106-2.624-.639"/></g><defs><clipPath id="a"><path fill="#fff" d="M0 0h30v30H0z"/></clipPath></defs></svg>