<svg xmlns="http://www.w3.org/2000/svg" width="44" height="30" fill="none" viewBox="0 0 44 30"><g clip-path="url(#a)"><g clip-path="url(#b)"><path fill="red" d="M42.76 4.685A5.4 5.4 0 0 0 38.93.896C35.552 0 22 0 22 0S8.449 0 5.07.896a5.4 5.4 0 0 0-3.83 3.789C.332 8.025.332 15 .332 15s0 6.974.906 10.315a5.4 5.4 0 0 0 3.832 3.789C8.449 30 22 30 22 30s13.552 0 16.93-.896a5.4 5.4 0 0 0 3.83-3.789c.907-3.34.907-10.315.907-10.315s-.004-6.974-.906-10.315"/><path fill="#fff" d="m17.663 21.428 11.258-6.427-11.258-6.428z"/></g></g><defs><clipPath id="a"><path fill="#fff" d="M.333 0h43.333v30H.333z"/></clipPath><clipPath id="b"><path fill="#fff" d="M.333 0h43.333v30H.333z"/></clipPath></defs></svg>